# xmcd
#
# Track frame offsets:
#	182
#	20320
#	47590
#	67857
#	87387
#	105852
#	125562
#	148635
#	169787
#	192167
#	209667
#	229392
#
# Disc length: 3251 seconds
#
# Revision: 10
# Processed by: cddbd v1.5.2PL0 Copyright (c) Steve Scherf et al.
# Submitted via: audiograbber 1.83.01
#
DISCID=a10cb10c
DTITLE=Various Artist - The Blues Collection 32 -- Otis Spann - My Home In The
DTITLE=Delta
DYEAR=1995
DGENRE=Blues
TTITLE0=Otis Spann - Country Boy
TTITLE1=Otis Spann - Beat-Up Team
TTITLE2=Otis Spann - My Daily Wish
TTITLE3=Otis Spann - Great Northern Stomp
TTITLE4=Otis Spann - I Got Rambling On My Mind
TTITLE5=Otis Spann - Worried Life Blues
TTITLE6=Otis Spann - The Hard Way
TTITLE7=Otis Spann - Half Ain't Been Told
TTITLE8=Otis Spann - Monkey Face Woman
TTITLE9=Otis Spann - Evil Ways
TTITLE10=Otis Spann - Bad Condition
TTITLE11=Otis Spann - My Home In The Delta
EXTD=
EXTT0=
EXTT1=
EXTT2=
EXTT3=
EXTT4=
EXTT5=
EXTT6=
EXTT7=
EXTT8=
EXTT9=
EXTT10=
EXTT11=
PLAYORDER=
